<svg xmlns="http://www.w3.org/2000/svg" xmlns:xlink="http://www.w3.org/1999/xlink" viewBox="0 0 330 512"><defs><style>.cls-1{fill:url(#linear-gradient);}.cls-2{fill:url(#linear-gradient-2);}</style><linearGradient id="linear-gradient" x1="165" y1="2" x2="165" y2="514" gradientTransform="matrix(1, 0, 0, -1, 0, 514)" gradientUnits="userSpaceOnUse"><stop offset="0" stop-color="#fd3a84"/><stop offset="1" stop-color="#ffa68d"/></linearGradient><linearGradient id="linear-gradient-2" x1="65" y1="232" x2="265" y2="232" gradientUnits="userSpaceOnUse"><stop offset="0" stop-color="#ffc2cc"/><stop offset="1" stop-color="#fff2f4"/></linearGradient></defs><g id="Layer_2" data-name="Layer 2"><g id="Capa_1" data-name="Capa 1"><path class="cls-1" d="M307.28,509.86,165,424.49,22.72,509.86A15,15,0,0,1,0,497V15A15,15,0,0,1,15,0H315a15,15,0,0,1,15,15V497a15,15,0,0,1-22.72,12.86Z"/><path class="cls-2" d="M206.7,141.3a57.61,57.61,0,0,0-26.49,6.35A58.65,58.65,0,0,0,165,158.86a58.65,58.65,0,0,0-15.21-11.21,57.61,57.61,0,0,0-26.49-6.35A58.37,58.37,0,0,0,65,199.6c0,22.77,12,47,35.74,71.88,19.81,20.82,44.05,38.16,60.9,49L165,322.7l3.36-2.17c16.85-10.88,41.09-28.23,60.9-49C253,246.56,265,222.37,265,199.6A58.37,58.37,0,0,0,206.7,141.3Z"/></g></g></svg>